<svg xmlns="http://www.w3.org/2000/svg" xmlns:xlink="http://www.w3.org/1999/xlink" width="500" zoomAndPan="magnify" viewBox="0 0 375 374.999991" height="500" preserveAspectRatio="xMidYMid meet" version="1.0"><defs><g/></defs><path fill="#ffffff" d="M 102.011719 169.121094 L 100.265625 177.878906 L 97.046875 194.027344 C 96.003906 194.214844 94.910156 194.378906 93.769531 194.523438 C 93.472656 194.558594 93.167969 194.59375 92.863281 194.628906 C 91.144531 194.824219 89.953125 196.082031 90.191406 197.441406 C 90.214844 197.570312 90.25 197.695312 90.296875 197.816406 C 90.128906 197.4375 90.085938 197.042969 90.164062 196.636719 L 95.804688 168.347656 C 96.074219 166.992188 97.6875 166.070312 99.394531 166.28125 C 101.105469 166.488281 102.28125 167.765625 102.011719 169.121094 Z M 102.011719 169.121094 " fill-opacity="1" fill-rule="nonzero"/><path fill="#ffffff" d="M 125.640625 177.421875 C 125.472656 173.539062 121.382812 170.523438 116.210938 170.523438 C 111.207031 170.523438 107.023438 173.28125 106.054688 176.9375 C 106.042969 176.980469 106.03125 177.023438 106.019531 177.070312 C 106.011719 177.113281 106.003906 177.132812 106 177.164062 C 106 177.171875 106 177.179688 106 177.183594 C 106 177.1875 106 177.191406 106 177.195312 C 106 177.195312 106 177.203125 106 177.207031 C 105.988281 177.28125 105.953125 177.484375 105.902344 177.8125 C 105.902344 177.816406 105.902344 177.820312 105.902344 177.824219 C 105.542969 179.757812 104.453125 185.734375 102.773438 192.265625 C 102.679688 192.625 102.589844 192.984375 102.492188 193.347656 C 102.375 193.78125 102.261719 194.214844 102.140625 194.652344 L 102.046875 194.996094 C 101.804688 195.867188 101.566406 196.695312 101.332031 197.480469 C 101.183594 197.980469 101.035156 198.460938 100.886719 198.929688 C 100.777344 199.28125 100.667969 199.625 100.558594 199.964844 C 100.257812 200.890625 99.964844 201.746094 99.667969 202.546875 C 99.667969 202.554688 99.664062 202.566406 99.660156 202.570312 L 93.148438 202.570312 C 92.949219 202.570312 92.757812 202.578125 92.5625 202.59375 C 92.554688 202.59375 92.542969 202.59375 92.53125 202.59375 C 92.53125 202.59375 92.523438 202.59375 92.523438 202.59375 C 88.285156 202.882812 85.050781 206.15625 85.050781 210.277344 C 85.050781 214.601562 88.613281 217.988281 93.148438 217.988281 C 94.089844 217.988281 95.007812 217.84375 95.898438 217.546875 C 95.90625 217.546875 95.910156 217.546875 95.914062 217.546875 C 96.082031 217.511719 96.25 217.464844 96.410156 217.40625 C 98.585938 216.59375 101.289062 215.226562 104.328125 208.160156 C 104.328125 208.160156 97.5625 208.128906 97.558594 208.140625 C 97.554688 208.152344 95.449219 211.367188 94.042969 212.59375 L 94.015625 212.617188 C 93.929688 212.699219 93.835938 212.769531 93.734375 212.832031 C 93.710938 212.847656 93.683594 212.863281 93.660156 212.878906 C 93.636719 212.894531 93.617188 212.902344 93.59375 212.910156 C 93.460938 213 93.308594 213.039062 93.148438 213.027344 C 92.425781 213.027344 91.328125 211.933594 91.328125 210.285156 C 91.328125 208.636719 92.425781 207.542969 93.148438 207.542969 L 97.628906 207.519531 L 112.867188 207.519531 C 114.601562 207.519531 116.003906 206.40625 116.003906 205.035156 C 116.003906 203.664062 114.601562 202.550781 112.867188 202.550781 L 106.195312 202.550781 C 106.761719 200.886719 107.335938 199.03125 107.925781 196.964844 C 114.84375 194.492188 118.042969 191.066406 120.625 188.238281 C 124.921875 183.527344 125.664062 178.0625 125.640625 177.421875 Z M 117.523438 183.867188 C 114.441406 189.386719 108.0625 196.808594 107.929688 196.960938 L 109.929688 190.445312 L 113.421875 179.066406 C 113.609375 178.472656 113.972656 178.015625 114.511719 177.699219 C 115.332031 177.207031 116.6875 176.921875 118.621094 178.238281 C 119.726562 178.996094 119 181.210938 117.523438 183.867188 Z M 117.523438 183.867188 " fill-opacity="1" fill-rule="nonzero"/><path fill="#ffffff" d="M 102.492188 193.355469 C 102.375 193.789062 102.261719 194.222656 102.140625 194.660156 L 102.046875 195 C 101.804688 195.871094 101.566406 196.699219 101.332031 197.484375 C 101.183594 197.988281 101.035156 198.46875 100.886719 198.9375 C 98.925781 199.355469 94.535156 199.96875 94.535156 199.96875 L 93.707031 199.96875 C 93.644531 199.96875 93.582031 199.96875 93.515625 199.964844 C 93.410156 199.960938 93.300781 199.949219 93.199219 199.9375 C 93.085938 199.921875 92.976562 199.90625 92.867188 199.878906 C 92.8125 199.867188 92.757812 199.855469 92.707031 199.839844 C 92.496094 199.785156 92.292969 199.710938 92.097656 199.621094 C 92 199.574219 91.90625 199.519531 91.816406 199.46875 C 91.726562 199.417969 91.640625 199.359375 91.558594 199.296875 C 91.476562 199.234375 91.394531 199.171875 91.320312 199.101562 C 91.222656 199.007812 91.132812 198.910156 91.050781 198.804688 C 91.023438 198.769531 90.996094 198.734375 90.972656 198.699219 C 90.964844 198.6875 90.957031 198.679688 90.949219 198.667969 C 90.917969 198.621094 90.886719 198.574219 90.859375 198.527344 L 90.824219 198.46875 C 90.824219 198.457031 90.816406 198.449219 90.808594 198.441406 C 90.804688 198.429688 90.792969 198.410156 90.785156 198.394531 C 90.78125 198.378906 90.777344 198.378906 90.777344 198.371094 C 90.765625 198.339844 90.746094 198.308594 90.734375 198.273438 C 90.6875 198.148438 90.652344 198.023438 90.628906 197.894531 C 90.386719 196.535156 91.578125 195.277344 93.296875 195.085938 C 93.601562 195.050781 93.902344 195.015625 94.203125 194.976562 C 95.34375 194.832031 96.4375 194.667969 97.480469 194.480469 C 99.289062 194.164062 100.953125 193.78125 102.492188 193.355469 Z M 102.492188 193.355469 " fill-opacity="1" fill-rule="nonzero"/><g fill="#ffffff" fill-opacity="1"><g transform="translate(133.697662, 190.738963)"><g><path d="M 3.828125 -1.703125 L 10.28125 -1.703125 L 10.28125 0 L 1.8125 0 L 1.8125 -14.90625 L 3.828125 -14.90625 Z M 3.828125 -1.703125 "/></g></g></g><g fill="#ffffff" fill-opacity="1"><g transform="translate(144.83264, 190.738963)"><g><path d="M 11 -14.90625 L 11 -13.265625 L 3.84375 -13.265625 L 3.84375 -8.3125 L 9.640625 -8.3125 L 9.640625 -6.734375 L 3.84375 -6.734375 L 3.84375 -1.640625 L 11 -1.640625 L 11 0 L 1.8125 0 L 1.8125 -14.90625 Z M 11 -14.90625 "/></g></g></g><g fill="#ffffff" fill-opacity="1"><g transform="translate(157.362058, 190.738963)"><g><path d="M 11.96875 -14.90625 L 11.96875 -13.21875 L 7.15625 -13.21875 L 7.15625 0 L 5.125 0 L 5.125 -13.21875 L 0.296875 -13.21875 L 0.296875 -14.90625 Z M 11.96875 -14.90625 "/></g></g></g><g fill="#ffffff" fill-opacity="1"><g transform="translate(170.078792, 190.738963)"><g><path d="M 3.1875 -14.90625 L 3.1875 -11.890625 L 3.03125 -10.28125 C 3.007812 -10.0625 2.945312 -9.890625 2.84375 -9.765625 C 2.75 -9.640625 2.597656 -9.578125 2.390625 -9.578125 C 2.203125 -9.578125 2.054688 -9.640625 1.953125 -9.765625 C 1.859375 -9.890625 1.789062 -10.0625 1.75 -10.28125 L 1.578125 -11.890625 L 1.578125 -14.90625 Z M 3.1875 -14.90625 "/></g></g></g><g fill="#ffffff" fill-opacity="1"><g transform="translate(175.303022, 190.738963)"><g><path d="M 9.453125 -12.578125 C 9.390625 -12.472656 9.320312 -12.394531 9.25 -12.34375 C 9.175781 -12.289062 9.085938 -12.265625 8.984375 -12.265625 C 8.859375 -12.265625 8.71875 -12.320312 8.5625 -12.4375 C 8.40625 -12.5625 8.207031 -12.691406 7.96875 -12.828125 C 7.738281 -12.972656 7.453125 -13.101562 7.109375 -13.21875 C 6.773438 -13.34375 6.367188 -13.40625 5.890625 -13.40625 C 5.441406 -13.40625 5.039062 -13.34375 4.6875 -13.21875 C 4.34375 -13.09375 4.050781 -12.925781 3.8125 -12.71875 C 3.582031 -12.519531 3.410156 -12.28125 3.296875 -12 C 3.179688 -11.71875 3.125 -11.410156 3.125 -11.078125 C 3.125 -10.660156 3.222656 -10.316406 3.421875 -10.046875 C 3.628906 -9.773438 3.898438 -9.539062 4.234375 -9.34375 C 4.578125 -9.144531 4.960938 -8.972656 5.390625 -8.828125 C 5.816406 -8.691406 6.253906 -8.546875 6.703125 -8.390625 C 7.148438 -8.242188 7.582031 -8.070312 8 -7.875 C 8.425781 -7.6875 8.804688 -7.445312 9.140625 -7.15625 C 9.484375 -6.863281 9.753906 -6.503906 9.953125 -6.078125 C 10.160156 -5.660156 10.265625 -5.144531 10.265625 -4.53125 C 10.265625 -3.875 10.15625 -3.257812 9.9375 -2.6875 C 9.71875 -2.113281 9.394531 -1.613281 8.96875 -1.1875 C 8.539062 -0.769531 8.015625 -0.4375 7.390625 -0.1875 C 6.773438 0.0507812 6.070312 0.171875 5.28125 0.171875 C 4.3125 0.171875 3.429688 -0.00390625 2.640625 -0.359375 C 1.847656 -0.710938 1.171875 -1.1875 0.609375 -1.78125 L 1.1875 -2.734375 C 1.238281 -2.804688 1.304688 -2.867188 1.390625 -2.921875 C 1.472656 -2.972656 1.5625 -3 1.65625 -3 C 1.800781 -3 1.96875 -2.921875 2.15625 -2.765625 C 2.34375 -2.617188 2.578125 -2.453125 2.859375 -2.265625 C 3.140625 -2.078125 3.476562 -1.90625 3.875 -1.75 C 4.269531 -1.59375 4.757812 -1.515625 5.34375 -1.515625 C 5.820312 -1.515625 6.25 -1.578125 6.625 -1.703125 C 7 -1.835938 7.3125 -2.023438 7.5625 -2.265625 C 7.820312 -2.503906 8.019531 -2.789062 8.15625 -3.125 C 8.300781 -3.457031 8.375 -3.828125 8.375 -4.234375 C 8.375 -4.679688 8.269531 -5.050781 8.0625 -5.34375 C 7.863281 -5.632812 7.597656 -5.875 7.265625 -6.0625 C 6.929688 -6.257812 6.550781 -6.425781 6.125 -6.5625 C 5.695312 -6.695312 5.257812 -6.832031 4.8125 -6.96875 C 4.363281 -7.113281 3.925781 -7.28125 3.5 -7.46875 C 3.070312 -7.65625 2.691406 -7.894531 2.359375 -8.1875 C 2.023438 -8.488281 1.753906 -8.863281 1.546875 -9.3125 C 1.347656 -9.757812 1.25 -10.316406 1.25 -10.984375 C 1.25 -11.503906 1.347656 -12.007812 1.546875 -12.5 C 1.753906 -13 2.050781 -13.4375 2.4375 -13.8125 C 2.832031 -14.195312 3.316406 -14.503906 3.890625 -14.734375 C 4.460938 -14.960938 5.117188 -15.078125 5.859375 -15.078125 C 6.691406 -15.078125 7.453125 -14.941406 8.140625 -14.671875 C 8.828125 -14.410156 9.425781 -14.03125 9.9375 -13.53125 Z M 9.453125 -12.578125 "/></g></g></g><g fill="#ffffff" fill-opacity="1"><g transform="translate(186.760159, 190.738963)"><g/></g></g><g fill="#ffffff" fill-opacity="1"><g transform="translate(133.697662, 213.988961)"><g><path d="M 11 -14.90625 L 11 -13.265625 L 3.84375 -13.265625 L 3.84375 -8.046875 L 9.953125 -8.046875 L 9.953125 -6.40625 L 3.84375 -6.40625 L 3.84375 0 L 1.8125 0 L 1.8125 -14.90625 Z M 11 -14.90625 "/></g></g></g><g fill="#ffffff" fill-opacity="1"><g transform="translate(145.914896, 213.988961)"><g><path d="M 3.828125 -1.703125 L 10.28125 -1.703125 L 10.28125 0 L 1.8125 0 L 1.8125 -14.90625 L 3.828125 -14.90625 Z M 3.828125 -1.703125 "/></g></g></g><g fill="#ffffff" fill-opacity="1"><g transform="translate(157.049873, 213.988961)"><g><path d="M 4.203125 0 L 2.1875 0 L 2.1875 -14.90625 L 4.203125 -14.90625 Z M 4.203125 0 "/></g></g></g><g fill="#ffffff" fill-opacity="1"><g transform="translate(163.876666, 213.988961)"><g><path d="M 4.03125 -8.375 L 4.78125 -8.375 C 5.050781 -8.375 5.265625 -8.40625 5.421875 -8.46875 C 5.578125 -8.539062 5.722656 -8.65625 5.859375 -8.8125 L 10.828125 -14.4375 C 10.972656 -14.601562 11.117188 -14.722656 11.265625 -14.796875 C 11.410156 -14.867188 11.59375 -14.90625 11.8125 -14.90625 L 13.53125 -14.90625 L 7.84375 -8.484375 C 7.695312 -8.328125 7.5625 -8.191406 7.4375 -8.078125 C 7.3125 -7.972656 7.175781 -7.882812 7.03125 -7.8125 C 7.21875 -7.75 7.382812 -7.65625 7.53125 -7.53125 C 7.675781 -7.40625 7.828125 -7.25 7.984375 -7.0625 L 13.921875 0 L 12.171875 0 C 12.046875 0 11.9375 -0.0078125 11.84375 -0.03125 C 11.75 -0.0507812 11.671875 -0.078125 11.609375 -0.109375 C 11.546875 -0.148438 11.484375 -0.195312 11.421875 -0.25 C 11.367188 -0.300781 11.316406 -0.359375 11.265625 -0.421875 L 6.109375 -6.34375 C 6.035156 -6.425781 5.960938 -6.5 5.890625 -6.5625 C 5.828125 -6.625 5.75 -6.675781 5.65625 -6.71875 C 5.570312 -6.757812 5.472656 -6.785156 5.359375 -6.796875 C 5.242188 -6.816406 5.101562 -6.828125 4.9375 -6.828125 L 4.03125 -6.828125 L 4.03125 0 L 2.015625 0 L 2.015625 -14.90625 L 4.03125 -14.90625 Z M 4.03125 -8.375 "/></g></g></g></svg>