<?xml version="1.0"?>
<svg width="576" height="576" xmlns="http://www.w3.org/2000/svg" xmlns:svg="http://www.w3.org/2000/svg" data-name="Layer 1">
 <defs>
  <style>.cls-1{fill:#383f52;}.cls-2{fill:#fff;}</style>
 </defs>
 <g class="layer">
  <title>Layer 1</title>
  <path class="cls-2" d="m254.33,56.12l-17.64,88.47l0,0l-32.55,163.21q-15.82,2.82 -33.1,5l0,0c-3,0.38 -6.08,0.73 -9.17,1.09c-17.35,1.95 -29.4,14.66 -27,28.39a20.71,20.71 0 0 0 1.06,3.8a20.08,20.08 0 0 1 -1.32,-11.92l57,-285.88c2.72,-13.7 19,-23 36.27,-20.88s29.17,15.02 26.45,28.72z" id="svg_2"/>
  <path class="cls-2" d="m493.08,140c-1.67,-39.24 -43,-69.73 -95.27,-69.73c-50.58,0 -92.86,27.87 -102.64,64.81c-0.13,0.44 -0.25,0.9 -0.34,1.35s-0.16,0.62 -0.21,0.94c0,0.08 0,0.16 0,0.23a0.06,0.06 0 0 1 0,0a0.2,0.2 0 0 1 0,0.1s0,0.08 0,0.12c-0.1,0.73 -0.46,2.81 -1,6.11a0.16,0.16 0 0 1 0,0.12c-3.62,19.54 -14.62,79.95 -31.62,145.95l0,0c-0.92,3.62 -1.85,7.27 -2.83,10.93c-1.17,4.39 -2.32,8.77 -3.55,13.19l-0.94,3.45q-3.66,13.2 -7.23,25.1c-1.5,5.06 -3,9.94 -4.5,14.68c-1.11,3.55 -2.21,7 -3.3,10.43c-3.06,9.38 -6,18 -9,26.12a1.7,1.7 0 0 1 -0.09,0.24l-65.81,0c-2,0 -3.94,0.06 -5.9,0.21a1.72,1.72 0 0 0 -0.32,0s-0.08,0 -0.1,0c-42.81,2.94 -75.52,36 -75.52,77.64c0,43.71 36,77.92 81.84,77.92a87.93,87.93 0 0 0 27.81,-4.44a0.53,0.53 0 0 0 0.15,0a34.39,34.39 0 0 0 5,-1.44c22,-8.2 49.29,-22 80,-93.41c0,0 -68.34,-0.32 -68.38,-0.2s-21.33,32.58 -35.55,44.99l-0.28,0.25a19.37,19.37 0 0 1 -2.81,2.16c-0.27,0.17 -0.52,0.3 -0.77,0.46s-0.44,0.24 -0.65,0.34a7.5,7.5 0 0 1 -4.52,1.17c-7.3,0 -18.39,-11.06 -18.39,-27.71s11.09,-27.69 18.39,-27.69l45.26,-0.24l153.99,0c17.54,0 31.72,-11.25 31.72,-25.11s-14.18,-25.1 -31.72,-25.1l-67.42,0c5.72,-16.83 11.56,-35.58 17.5,-56.46c69.91,-25 102.23,-59.59 128.33,-88.18c43.43,-47.6 50.94,-102.84 50.67,-109.3zm-82,65.11c-31.15,55.8 -95.62,130.78 -96.95,132.32l20.2,-65.82l35.3,-115a24.62,24.62 0 0 1 11,-13.81c8.28,-5 22,-7.88 41.53,5.44c11.16,7.64 3.84,30.04 -11.11,56.89l0.03,-0.02z" id="svg_3"/>
  <path class="cls-2" d="m259.16,301c-1.17,4.39 -2.32,8.77 -3.55,13.19l-0.94,3.45q-3.66,13.2 -7.23,25.1c-1.5,5.06 -3,9.94 -4.5,14.68c-19.79,4.2 -64.16,10.43 -64.16,10.43l-8.38,0c-0.65,0 -1.28,0 -1.94,-0.05c-1.07,-0.06 -2.15,-0.15 -3.21,-0.29a33.25,33.25 0 0 1 -3.34,-0.57c-0.54,-0.12 -1.1,-0.26 -1.63,-0.4a34.6,34.6 0 0 1 -6.15,-2.24c-1,-0.46 -1.93,-1 -2.85,-1.51a28.86,28.86 0 0 1 -2.61,-1.74a27.24,27.24 0 0 1 -2.38,-2a26.22,26.22 0 0 1 -2.75,-3c-0.27,-0.35 -0.54,-0.71 -0.79,-1.06a1.69,1.69 0 0 1 -0.21,-0.31c-0.33,-0.47 -0.63,-0.94 -0.92,-1.42l-0.35,-0.6c0,-0.09 -0.1,-0.19 -0.15,-0.28s-0.16,-0.29 -0.23,-0.46s-0.08,-0.14 -0.1,-0.23c-0.13,-0.3 -0.31,-0.63 -0.42,-1a19.82,19.82 0 0 1 -1.06,-3.82c-2.46,-13.72 9.59,-26.44 26.94,-28.39c3.1,-0.36 6.13,-0.71 9.17,-1.09l0,0q17.3,-2.19 33.11,-5c18.29,-3.22 35.11,-7.08 50.63,-11.39z" id="svg_4"/>
 </g>
</svg>